<svg width="70" height="70" fill="none" xmlns="http://www.w3.org/2000/svg"><path d="M69.9434 9.89643c-.1376-.42124-.5016-.72913-.9414-.79339l-4.179-.60786-1.8702-3.78703c-.392-.79804-1.6999-.79804-2.0919 0l-1.8702 3.78703-4.1791.608c-.4398.06412-.8038.37106-.9427.79339-.1364.42233-.0234.88663.2952 1.19593l3.0252 2.9482-.7139 4.1628c-.0747.4375.105.8796.4632 1.141.3628.2638.8364.2963 1.2296.0886l3.7381-1.9659 3.7381 1.9659c.1703.0898.3582.1341.5437.1341.2415 0 .4831-.0746.6861-.2228.3593-.2613.5389-.7036.4632-1.1411l-.7139-4.1627 3.0252-2.9483c.3169-.3103.4313-.7735.2947-1.19587zm-5.3876 2.90277c-.2741.2671-.4002.6544-.3348 1.0325l.4177 2.4372-2.1886-1.1504c-.1704-.0898-.357-.1341-.5438-.1341-.1866 0-.3721.0443-.5437.1341l-2.1888 1.1504.4177-2.4372c.0653-.3781-.0607-.7642-.3348-1.0325l-1.7722-1.7267 2.4477-.3559c.3804-.0548.7082-.2939.8786-.6382l1.0943-2.21665 1.0943 2.21665c.1703.3441.4982.5834.8786.6382l2.4477.3559-1.7699 1.7267zM57.1669 44.8923h-2.3334v2.3334h2.3334v-2.3334zM57.1669 49.5591h-2.3334v2.3334h2.3334v-2.3334zM59.5004 47.2257H57.167v2.3334h2.3334v-2.3334zM54.8339 47.2257h-2.3334v2.3334h2.3334v-2.3334zM49.0004 57.7258H46.667v2.3334h2.3334v-2.3334zM49.0004 62.3926H46.667v2.3334h2.3334v-2.3334z" fill="#2196F3"/><path d="M51.3334 60.0593H49v2.3334h2.3334v-2.3334zM46.6669 60.0593h-2.3334v2.3334h2.3334v-2.3334zM34.9999 53.0592h-2.3334v2.3334h2.3334v-2.3334zM34.9999 57.7258h-2.3334v2.3334h2.3334v-2.3334zM37.3334 55.3925H35v2.3334h2.3334v-2.3334zM32.6664 55.3925H30.333v2.3334h2.3334v-2.3334zM12.8329 13.3918h-2.3334v2.3335h2.3334v-2.3335zM12.8329 18.0586h-2.3334v2.3334h2.3334v-2.3334zM15.1664 15.7252H12.833v2.3334h2.3334v-2.3334zM10.4994 15.7252H8.16602v2.3334h2.33338v-2.3334z" fill="#2196F3"/><path d="M54.0635 30.9739c-.6288-.8482-1.5516-1.3942-2.5993-1.5413-1.0524-.1493-2.0908.1272-2.9308.77l-2.7382 2.0988-.0012.0013-4.1512 3.0998-2.9704-1.183c5.2967-2.3765 8.9987-7.6744 8.9987-13.8252 0-8.3628-6.831-15.16688-15.2275-15.16688-8.3966 0-15.2275 6.80408-15.2275 15.16688 0 3.0311.9065 5.8497 2.4501 8.2215l-6.0458-.0525h-.0105c-.0188 0-.0338.0093-.0513.0106-.1155.0046-.2288.028-.3395.0677-.028.0105-.0571.0164-.0839.0291-.014.0058-.0281.0069-.042.0139l-7.07245 3.4919c-.00123 0-.00232 0-.00232.0011L1.8766 34.1693c-.04553.0198-.09215.0466-.13768.077C.0880191 35.3452-.474314 37.5037.429958 39.2676c.481805.9381 1.301992 1.6288 2.310032 1.9449.38857.1213.78519.1809 1.1795.1809.63356 0 1.26125-.1552 1.83629-.462l3.03576-1.6147 4.95256-2.5573 2.9681-.0176L4.80844 48.5884c-.00109.0013-.00232.0013-.00355.0024l-2.92842 2.9166C1.18466 52.1958.8043 53.1092.8043 54.0835c0 .9731.38036 1.8888 1.07217 2.5784.71053.707 1.64502 1.0617 2.57951 1.0617.93572 0 1.86897-.3547 2.58184-1.0617l2.87469-2.863 3.80809-2.8433 1.9706 1.9624-3.8537 3.8372c-.0011.0012-.0023.0012-.0035.0023l-2.92844 2.9167c-.69181.6884-1.07216 1.6018-1.07216 2.5761 0 .973.38035 1.8888 1.07216 2.5784.71054.707 1.64624 1.0616 2.58074 1.0616.9345 0 1.8702-.3546 2.5818-1.0616l2.9296-2.9167 4.6865-4.6667c.0012-.0012.0012-.0023.0023-.0035l2.2086-2.1876-.0082-.0082c.0139-.0139.0338-.0187.0478-.0337l11.3006-12.3774 7.5928 1.0804c.0548.0082.1096.0116.1644.0116.1413 0 .2777-.0338.4095-.0839.0386-.014.0723-.0327.1086-.0513.042-.0211.0862-.0327.126-.0595l7.0293-4.6667c.0257-.0175.0396-.0455.0641-.0641.028-.0221.063-.0314.0886-.056l2.7813-2.6053c1.4472-1.356 1.6467-3.5773.4636-5.1662zM4.66024 38.8722c-.37913.2031-.80966.2438-1.22146.1132-.40839-.1271-.73966-.406-.9334-.7828-.35233-.6861-.1482-1.5215.46895-1.9729l2.8736-1.3825.69181 2.0218.29053.8493-2.17003 1.1539zm7.64996-3.9981l-3.38687 1.75-.55877-1.6334-.40128-1.1737 4.43342-2.1888-.0865 3.2459zm33.03-14.4822c0 2.009-.4795 3.9038-1.3102 5.5989l-9.1468-4.1545c-.0957-1.2542-.7466-2.352-1.7243-3.0358l3.2025-10.63194c5.2012 1.65446 8.9788 6.50664 8.9788 12.22334zm-25.7883 0c0-7.0759 5.7844-12.83353 12.8941-12.83353.5531 0 1.0943.04662 1.6299.1143L30.9433 18.0714c-.0419-.0012-.0816-.0129-.1248-.0129-2.2588 0-4.0963 1.8317-4.0963 4.0835 0 2.2516 1.8375 4.0834 4.0963 4.0834 1.519 0 2.8315-.8388 3.5397-2.0662l8.4491 3.8384c-2.3509 3.164-6.1135 5.2279-10.3614 5.2279-7.1096 0-12.894-5.7576-12.894-12.8336zm13.0295 1.7501c0 .9648-.7911 1.75-1.7629 1.75-.9718 0-1.7629-.7852-1.7629-1.75 0-.9649.7911-1.7501 1.7629-1.7501.9718 0 1.7629.7852 1.7629 1.7501zM5.39183 55.0075c-.5168.5121-1.3534.511-1.86897.0012-.24856-.2485-.38501-.5763-.38501-.9252 0-.3477.13645-.6755.38501-.9216l2.10454-2.0966 1.86201 1.8539-2.09758 2.0883zm7.03037 8.1669c-.5168.5121-1.3545.5134-1.8702.0012-.2486-.2486-.3851-.5763-.3851-.9252 0-.3477.1365-.6755.3851-.9216l2.1059-2.0977.8809.8762.9823.9777-2.0989 2.0894zm7.6161-7.5882c-.0012.0011-.0023.0011-.0035.0024l-3.8606 3.85-.8809-.8762-.9823-.9777 3.857-3.8396v-.0011c.0012-.0012.0023-.0012.0035-.0023.0875-.0875.1424-.1925.1961-.2963.0152-.0303.0443-.056.0572-.0875.0362-.0898.0419-.1866.056-.2812.007-.0537.0304-.1038.0304-.1587 0-.0782-.0281-.154-.0443-.2311-.014-.07-.014-.1412-.0409-.2088-.0443-.1096-.1202-.2064-.1995-.301-.0221-.0257-.0303-.0584-.0548-.0829h-.0012c-.0013-.0011-.0013-.0035-.0024-.0046l-3.5152-3.5001c-.0373-.0373-.0852-.0525-.1272-.0839-.0617-.0479-.1212-.0922-.1901-.1261-.0665-.0326-.1342-.0525-.2042-.0712-.0746-.0211-.1469-.0373-.2251-.0432-.0713-.0047-.1377.0023-.2088.0105-.0782.0093-.1516.0198-.2275.0443-.0736.0234-.1388.0595-.2065.098-.0432.0245-.0921.0327-.133.0631l-3.87917 2.8957-1.97056-1.9623 5.24773-5.2198 9.5389 9.3814-2.0291 2.0102zm14.9161-15.3489c-.0337-.0047-.0653.0082-.0991.0058-.0852-.0046-.1668.0013-.2519.0152-.0665.0116-.1295.0245-.1926.0466-.0746.0257-.1423.0607-.2112.1027-.0653.0397-.1248.0816-.182.1341-.028.0245-.0618.0363-.0875.0642L23.6527 51.8621l-9.4677-9.3114 6.1975-6.1647c.4562-.455.4585-1.1936.0035-1.6509-.2298-.2299-.532-.3431-.8341-.3418v-.0011l-4.8535.0291.0607-3.5163 6.7901.0583c2.7674 2.8304 6.6268 4.5956 10.8968 4.5956.9567 0 1.8901-.0991 2.7988-.2683.0875.07.1738.1412.2836.1855l5.2711 2.1.3336 1.659.3897 1.9366-6.5684-.9344zm8.84.3896l-.6848-3.4079 3.164-2.3625.8284 1.0989 1.2425 1.6497-4.5501 3.0218zm8.2111-6.1928l-1.8329 1.7174-2.037-2.7044 1.8188-1.3941c.3394-.2613.7677-.3675 1.1877-.3127.4223.0595.7957.28 1.05.6218.4737.6382.3932 1.5284-.1866 2.072z" fill="#212121"/><path d="M29.7547 40.5651l-4.6878-4.6667c-.4538-.4537-1.1912-.4537-1.6462 0l-4.6866 4.6667c-.2193.2206-.343.5168-.343.8272 0 .3103.1225.6079.343.8272l4.6866 4.6666c.2275.2263.5262.3395.8237.3395s.5961-.1132.8225-.3395l4.6878-4.6666c.2193-.2193.3441-.5169.3441-.8272 0-.3104-.1237-.6079-.3441-.8272zm-5.5103 3.8478l-3.0334-3.0206 3.0334-3.0206 3.0345 3.0206-3.0345 3.0206zM37.547 11.0923l-.5636 2.2657c.1552.0386 3.8011.9882 3.8011 4.7006h2.3334c-.0001-4.4125-3.6436-6.4868-5.5709-6.9663zM43.1176 20.392h-2.3334v2.3334h2.3334V20.392z" fill="#212121"/></svg>