<svg width="70" height="70" fill="none" xmlns="http://www.w3.org/2000/svg"><g clip-path="url(#clip0)"><path d="M32.6494 32.7351h2.3321v10.4945h-2.3321V32.7351zM41.978 37.3993h2.3321v5.8303H41.978v-5.8303zM23.3213 40.8975h2.3321v2.3321h-2.3321v-2.3321zM16.3247 39.7314h2.3321v3.4982h-2.3321v-3.4982z" fill="#2196F3"/><path d="M3.49817 61.8865H59.4689c1.9318 0 3.4981-1.5664 3.4981-3.4982v-4.6642c0-1.9319-1.5663-3.4982-3.4981-3.4982h-1.1661V21.1468l6.6234-6.2744c1.5373.7578 3.398.2978 4.404-1.0909 1.0067-1.3881.8655-3.2995-.3336-4.52472-1.1991-1.22528-3.1065-1.40804-4.5168-.43272-1.4097.97589-1.9108 2.82574-1.1865 4.37954l-4.9905 4.7308v-2.6902c0-1.9318-1.5663-3.4982-3.4982-3.4982H8.16239c-1.93185 0-3.49817 1.5664-3.49817 3.4982v34.9817H3.49817C1.56632 50.2259 0 51.7922 0 53.7241v4.6642c0 1.9318 1.56632 3.4982 3.49817 3.4982zM66.4652 10.58c.6439 0 1.166.5221 1.166 1.166 0 .644-.5221 1.1661-1.166 1.1661-.644 0-1.1661-.5221-1.1661-1.1661 0-.6439.5221-1.166 1.1661-1.166zM6.99634 15.2442c0-.6439.5221-1.1661 1.16605-1.1661H54.8046c.644 0 1.1661.5222 1.1661 1.1661v4.8971l-2.3321 2.216v-4.781c0-.6439-.5221-1.166-1.1661-1.166h-41.978c-.64395 0-1.16605.5221-1.16605 1.166v29.1514c0 .644.5221 1.1661 1.16605 1.1661h41.978c.644 0 1.1661-.5221 1.1661-1.1661V25.5651l2.3321-2.2097v26.8705H6.99634V15.2442zM17.4908 30.4029c-1.5777-.0045-2.9629 1.0465-3.3825 2.5673-.4197 1.5208.23 3.1338 1.5868 3.9388 1.3562.8051 3.0842.603 4.2178-.4942l4.0533 2.0338c.4709.2357 1.0419.1253 1.3921-.2682l8.6162-9.6934 8.4698 6.3467c.4544.3405 1.0886.3041 1.5009-.086l7.3613-6.9729v17.7869H11.6606V18.7424h39.6459v5.8194l-8.2501 7.8128-8.541-6.403c-.4851-.3633-1.1678-.295-1.5709.1577l-8.7346 9.8278-3.2653-1.633c.0239-.14.0387-.2812.0444-.423 0-1.9318-1.5663-3.4982-3.4982-3.4982zm1.1661 3.4982c0 .644-.5221 1.1661-1.1661 1.1661-.6439 0-1.166-.5221-1.166-1.1661 0-.6439.5221-1.1661 1.166-1.1661.644 0 1.1661.5222 1.1661 1.1661zm6.9963 18.6569h11.6606v1.1661c0 .6439-.5221 1.166-1.1661 1.166h-9.3284c-.644 0-1.1661-.5221-1.1661-1.166V52.558zM2.33211 53.7241c0-.644.52211-1.1661 1.16606-1.1661H23.3211v1.1661c0 1.9318 1.5663 3.4981 3.4982 3.4981h9.3284c1.9319 0 3.4982-1.5663 3.4982-3.4981V52.558h19.823c.6439 0 1.166.5221 1.166 1.1661v4.6642c0 .6439-.5221 1.166-1.166 1.166H3.49817c-.64395 0-1.16606-.5221-1.16606-1.166v-4.6642z" fill="#212121"/></g><defs><clipPath id="clip0"><path fill="#fff" d="M0 0h70v70H0z"/></clipPath></defs></svg>